<mxfile host="app.diagrams.net" modified="2020-11-04T03:26:05.724Z" agent="5.0 (Macintosh; Intel Mac OS X 10_15_6) AppleWebKit/605.1.15 (KHTML, like Gecko) Version/13.1.2 Safari/605.1.15" etag="ikqFMt0PkfBQjQs9f04r" version="13.8.6" type="github" pages="8">
  <diagram id="Fao6AHTK1YzCmF_5-Bte" name="core">
    <mxGraphModel dx="1042" dy="619" grid="1" gridSize="10" guides="1" tooltips="1" connect="1" arrows="1" fold="1" page="1" pageScale="1" pageWidth="827" pageHeight="1169" math="0" shadow="0">
      <root>
        <mxCell id="0" />
        <mxCell id="1" parent="0" />
      </root>
    </mxGraphModel>
  </diagram>
  <diagram id="aaz8rQRxG7FAJe_wi_Qe" name="aop">
    <mxGraphModel dx="1042" dy="619" grid="1" gridSize="10" guides="1" tooltips="1" connect="1" arrows="1" fold="1" page="1" pageScale="1" pageWidth="827" pageHeight="1169" math="0" shadow="0">
      <root>
        <mxCell id="BgI961N-3TSv7BcVnXmA-0" />
        <mxCell id="BgI961N-3TSv7BcVnXmA-1" parent="BgI961N-3TSv7BcVnXmA-0" />
      </root>
    </mxGraphModel>
  </diagram>
  <diagram id="v5nG8EgbQUdFxjgJSovr" name="beans">
    <mxGraphModel dx="1042" dy="619" grid="1" gridSize="10" guides="1" tooltips="1" connect="1" arrows="1" fold="1" page="1" pageScale="1" pageWidth="827" pageHeight="1169" math="0" shadow="0">
      <root>
        <mxCell id="ob4UyYlxUeYmEY2Lvu18-0" />
        <mxCell id="ob4UyYlxUeYmEY2Lvu18-1" parent="ob4UyYlxUeYmEY2Lvu18-0" />
      </root>
    </mxGraphModel>
  </diagram>
  <diagram id="nBT5wiRh4pOvYky_znrz" name="context">
    <mxGraphModel dx="1042" dy="619" grid="1" gridSize="10" guides="1" tooltips="1" connect="1" arrows="1" fold="1" page="1" pageScale="1" pageWidth="827" pageHeight="1169" math="0" shadow="0">
      <root>
        <mxCell id="NM_J535vATO15riIAVDu-0" />
        <mxCell id="NM_J535vATO15riIAVDu-1" parent="NM_J535vATO15riIAVDu-0" />
      </root>
    </mxGraphModel>
  </diagram>
  <diagram id="3Pbgx2mQu7T-l0uYLZhf" name="context-support">
    <mxGraphModel dx="1042" dy="619" grid="1" gridSize="10" guides="1" tooltips="1" connect="1" arrows="1" fold="1" page="1" pageScale="1" pageWidth="827" pageHeight="1169" math="0" shadow="0">
      <root>
        <mxCell id="HpHtEHXHERq-kqt2-lU8-0" />
        <mxCell id="HpHtEHXHERq-kqt2-lU8-1" parent="HpHtEHXHERq-kqt2-lU8-0" />
      </root>
    </mxGraphModel>
  </diagram>
  <diagram id="t_8sZ7F-jjVHUoplTbAM" name="tx">
    <mxGraphModel dx="1042" dy="619" grid="1" gridSize="10" guides="1" tooltips="1" connect="1" arrows="1" fold="1" page="1" pageScale="1" pageWidth="827" pageHeight="1169" math="0" shadow="0">
      <root>
        <mxCell id="QaYj9nxV4mHjBx9U-R98-0" />
        <mxCell id="QaYj9nxV4mHjBx9U-R98-1" parent="QaYj9nxV4mHjBx9U-R98-0" />
      </root>
    </mxGraphModel>
  </diagram>
  <diagram id="IL8C2kJHqIDBa8mmshuB" name="web">
    <mxGraphModel dx="1042" dy="619" grid="1" gridSize="10" guides="1" tooltips="1" connect="1" arrows="1" fold="1" page="1" pageScale="1" pageWidth="827" pageHeight="1169" math="0" shadow="0">
      <root>
        <mxCell id="BD6an6WjHKuKxAu8fJun-0" />
        <mxCell id="BD6an6WjHKuKxAu8fJun-1" parent="BD6an6WjHKuKxAu8fJun-0" />
      </root>
    </mxGraphModel>
  </diagram>
  <diagram id="sZejDe8Ekdb4p3rRCZyr" name="webmvc">
    <mxGraphModel dx="1042" dy="619" grid="1" gridSize="10" guides="1" tooltips="1" connect="1" arrows="1" fold="1" page="1" pageScale="1" pageWidth="827" pageHeight="1169" math="0" shadow="0">
      <root>
        <mxCell id="kwho-T_7jf9p4JeyTZgh-0" />
        <mxCell id="kwho-T_7jf9p4JeyTZgh-1" parent="kwho-T_7jf9p4JeyTZgh-0" />
      </root>
    </mxGraphModel>
  </diagram>
</mxfile>
